<svg width="240" height="240" viewBox="0 0 240 240" xmlns="http://www.w3.org/2000/svg"><rect x="110" y="30" width="10" height="10" fill="#6935da" /><rect x="120" y="30" width="10" height="10" fill="#6935da" /><rect x="130" y="30" width="10" height="10" fill="#6935da" /><rect x="100" y="40" width="10" height="10" fill="#6935da" /><rect x="110" y="40" width="10" height="10" fill="#c4da35" /><rect x="120" y="40" width="10" height="10" fill="#c4da35" /><rect x="130" y="40" width="10" height="10" fill="#6935da" /><rect x="90" y="50" width="10" height="10" fill="#6935da" /><rect x="100" y="50" width="10" height="10" fill="#c4da35" /><rect x="110" y="50" width="10" height="10" fill="#c4da35" /><rect x="120" y="50" width="10" height="10" fill="#c4da35" /><rect x="130" y="50" width="10" height="10" fill="#6935da" /><rect x="30" y="60" width="10" height="10" fill="#ffffff" /><rect x="40" y="60" width="10" height="10" fill="#6935da" /><rect x="50" y="60" width="10" height="10" fill="#6935da" /><rect x="60" y="60" width="10" height="10" fill="#6935da" /><rect x="90" y="60" width="10" height="10" fill="#6935da" /><rect x="100" y="60" width="10" height="10" fill="#c4da35" /><rect x="110" y="60" width="10" height="10" fill="#c4da35" /><rect x="120" y="60" width="10" height="10" fill="#c4da35" /><rect x="130" y="60" width="10" height="10" fill="#6935da" /><rect x="160" y="60" width="10" height="10" fill="#6935da" /><rect x="170" y="60" width="10" height="10" fill="#6935da" /><rect x="180" y="60" width="10" height="10" fill="#6935da" /><rect x="40" y="70" width="10" height="10" fill="#6935da" /><rect x="50" y="70" width="10" height="10" fill="#c4da35" /><rect x="60" y="70" width="10" height="10" fill="#c4da35" /><rect x="70" y="70" width="10" height="10" fill="#6935da" /><rect x="80" y="70" width="10" height="10" fill="#6935da" /><rect x="90" y="70" width="10" height="10" fill="#6935da" /><rect x="100" y="70" width="10" height="10" fill="#c4da35" /><rect x="110" y="70" width="10" height="10" fill="#c4da35" /><rect x="120" y="70" width="10" height="10" fill="#c4da35" /><rect x="130" y="70" width="10" height="10" fill="#6935da" /><rect x="140" y="70" width="10" height="10" fill="#6935da" /><rect x="150" y="70" width="10" height="10" fill="#6935da" /><rect x="160" y="70" width="10" height="10" fill="#c4da35" /><rect x="170" y="70" width="10" height="10" fill="#c4da35" /><rect x="180" y="70" width="10" height="10" fill="#6935da" /><rect x="40" y="80" width="10" height="10" fill="#6935da" /><rect x="50" y="80" width="10" height="10" fill="#c4da35" /><rect x="60" y="80" width="10" height="10" fill="#c4da35" /><rect x="70" y="80" width="10" height="10" fill="#c4da35" /><rect x="80" y="80" width="10" height="10" fill="#6935da" /><rect x="90" y="80" width="10" height="10" fill="#c4da35" /><rect x="100" y="80" width="10" height="10" fill="#c4da35" /><rect x="110" y="80" width="10" height="10" fill="#c4da35" /><rect x="120" y="80" width="10" height="10" fill="#6935da" /><rect x="130" y="80" width="10" height="10" fill="#6935da" /><rect x="140" y="80" width="10" height="10" fill="#c4da35" /><rect x="150" y="80" width="10" height="10" fill="#c4da35" /><rect x="160" y="80" width="10" height="10" fill="#c4da35" /><rect x="170" y="80" width="10" height="10" fill="#67da35" /><rect x="180" y="80" width="10" height="10" fill="#6935da" /><rect x="50" y="90" width="10" height="10" fill="#6935da" /><rect x="60" y="90" width="10" height="10" fill="#c4da35" /><rect x="70" y="90" width="10" height="10" fill="#c4da35" /><rect x="80" y="90" width="10" height="10" fill="#c4da35" /><rect x="90" y="90" width="10" height="10" fill="#c4da35" /><rect x="100" y="90" width="10" height="10" fill="#c4da35" /><rect x="110" y="90" width="10" height="10" fill="#90be2c" /><rect x="120" y="90" width="10" height="10" fill="#90be2c" /><rect x="130" y="90" width="10" height="10" fill="#c4da35" /><rect x="140" y="90" width="10" height="10" fill="#c4da35" /><rect x="150" y="90" width="10" height="10" fill="#c4da35" /><rect x="160" y="90" width="10" height="10" fill="#67da35" /><rect x="170" y="90" width="10" height="10" fill="#6935da" /><rect x="60" y="100" width="10" height="10" fill="#6935da" /><rect x="70" y="100" width="10" height="10" fill="#6935da" /><rect x="80" y="100" width="10" height="10" fill="#c4da35" /><rect x="90" y="100" width="10" height="10" fill="#c4da35" /><rect x="100" y="100" width="10" height="10" fill="#5f15d7" /><rect x="110" y="100" width="10" height="10" fill="#5f15d7" /><rect x="120" y="100" width="10" height="10" fill="#90be2c" /><rect x="130" y="100" width="10" height="10" fill="#c4da35" /><rect x="140" y="100" width="10" height="10" fill="#67da35" /><rect x="150" y="100" width="10" height="10" fill="#67da35" /><rect x="160" y="100" width="10" height="10" fill="#6935da" /><rect x="70" y="110" width="10" height="10" fill="#6935da" /><rect x="80" y="110" width="10" height="10" fill="#6935da" /><rect x="90" y="110" width="10" height="10" fill="#c4da35" /><rect x="100" y="110" width="10" height="10" fill="#5f15d7" /><rect x="110" y="110" width="10" height="10" fill="#5f15d7" /><rect x="120" y="110" width="10" height="10" fill="#90be2c" /><rect x="130" y="110" width="10" height="10" fill="#6935da" /><rect x="140" y="110" width="10" height="10" fill="#6935da" /><rect x="150" y="110" width="10" height="10" fill="#6935da" /><rect x="60" y="120" width="10" height="10" fill="#6935da" /><rect x="70" y="120" width="10" height="10" fill="#c4da35" /><rect x="80" y="120" width="10" height="10" fill="#c4da35" /><rect x="90" y="120" width="10" height="10" fill="#c4da35" /><rect x="100" y="120" width="10" height="10" fill="#c4da35" /><rect x="110" y="120" width="10" height="10" fill="#c4da35" /><rect x="120" y="120" width="10" height="10" fill="#c4da35" /><rect x="130" y="120" width="10" height="10" fill="#c4da35" /><rect x="140" y="120" width="10" height="10" fill="#6935da" /><rect x="50" y="130" width="10" height="10" fill="#6935da" /><rect x="60" y="130" width="10" height="10" fill="#c4da35" /><rect x="70" y="130" width="10" height="10" fill="#c4da35" /><rect x="80" y="130" width="10" height="10" fill="#67da35" /><rect x="90" y="130" width="10" height="10" fill="#c4da35" /><rect x="100" y="130" width="10" height="10" fill="#6935da" /><rect x="110" y="130" width="10" height="10" fill="#6935da" /><rect x="120" y="130" width="10" height="10" fill="#c4da35" /><rect x="130" y="130" width="10" height="10" fill="#c4da35" /><rect x="140" y="130" width="10" height="10" fill="#c4da35" /><rect x="150" y="130" width="10" height="10" fill="#6935da" /><rect x="40" y="140" width="10" height="10" fill="#6935da" /><rect x="50" y="140" width="10" height="10" fill="#c4da35" /><rect x="60" y="140" width="10" height="10" fill="#c4da35" /><rect x="70" y="140" width="10" height="10" fill="#c4da35" /><rect x="80" y="140" width="10" height="10" fill="#67da35" /><rect x="90" y="140" width="10" height="10" fill="#6935da" /><rect x="110" y="140" width="10" height="10" fill="#5f15d7" /><rect x="120" y="140" width="10" height="10" fill="#6935da" /><rect x="130" y="140" width="10" height="10" fill="#67da35" /><rect x="140" y="140" width="10" height="10" fill="#c4da35" /><rect x="150" y="140" width="10" height="10" fill="#6935da" /><rect x="40" y="150" width="10" height="10" fill="#6935da" /><rect x="50" y="150" width="10" height="10" fill="#67da35" /><rect x="60" y="150" width="10" height="10" fill="#c4da35" /><rect x="70" y="150" width="10" height="10" fill="#67da35" /><rect x="80" y="150" width="10" height="10" fill="#6935da" /><rect x="120" y="150" width="10" height="10" fill="#6935da" /><rect x="130" y="150" width="10" height="10" fill="#67da35" /><rect x="140" y="150" width="10" height="10" fill="#c4da35" /><rect x="150" y="150" width="10" height="10" fill="#67da35" /><rect x="160" y="150" width="10" height="10" fill="#6935da" /><rect x="50" y="160" width="10" height="10" fill="#6935da" /><rect x="60" y="160" width="10" height="10" fill="#6935da" /><rect x="70" y="160" width="10" height="10" fill="#6935da" /><rect x="130" y="160" width="10" height="10" fill="#6935da" /><rect x="140" y="160" width="10" height="10" fill="#67da35" /><rect x="150" y="160" width="10" height="10" fill="#6935da" /><rect x="160" y="160" width="10" height="10" fill="#6935da" /></svg>