<svg width="117" height="100" viewBox="0 0 117 100" fill="none" xmlns="http://www.w3.org/2000/svg">
<path d="M76.6011 31.2767C76.8143 30.6338 77.1329 29.8856 77.489 29.1333M77.489 29.1333C78.2352 27.5566 79.146 25.962 79.5961 25.2817C80.2474 24.2974 80.9311 28.2667 82.0911 29.7667C84.8462 33.3293 89.5911 29.6067 91.0911 30.6017C91.7895 31.0649 91.6011 32.2567 91.1061 32.9317C90.6111 33.6067 89.6211 33.9367 88.9461 34.6017C88.2711 35.2667 87.9411 36.2567 88.1011 37.2617C88.4403 39.3918 90.2611 41.2667 90.7661 42.9317C90.9672 43.5944 89.6211 43.9367 88.6161 43.7767C86.486 43.4376 85.2711 41.2867 84.1111 39.7867C82.7594 38.0387 79.2811 41.2567 76.1111 42.4467C74.3506 43.1076 76.2611 38.2867 76.7661 36.4567C77.8957 32.3636 72.2711 30.2867 72.2661 28.6217C72.5911 27.9467 73.5811 27.6167 74.5861 27.6117C75.5543 27.6069 76.5085 27.9129 77.489 29.1333ZM77.489 29.1333C77.5263 29.1797 77.5637 29.2275 77.6011 29.2767M87.7508 59.3907C87.5008 59.2657 87.2508 59.1406 87.3095 59.1388C87.3682 59.1369 87.7432 59.2619 87.999 59.5763C89.1467 60.9876 89.1374 62.7926 89.6431 64.3099C90.1489 65.8271 90.6527 67.3387 90.844 69.4848C90.9065 69.9943 91.0316 70.3694 91.1604 70.7558M83.2048 67.3463C83.9587 67.6001 85.4702 66.8462 86.9875 66.2117C88.5034 65.5777 90.0163 64.8232 91.5335 64.3175L93.8065 63.5598C94.1873 63.4329 94.5623 63.3079 95.3276 62.8002M91.918 58.633C92.043 58.508 92.1681 58.383 92.17 58.5061C92.1902 59.8208 91.2892 61.2773 90.7834 62.7945C90.2777 64.3118 89.7738 65.8233 88.9536 67.3406C88.6373 68.0964 88.2585 68.8578 87.8171 69.6136C87.6258 69.9944 87.5008 70.3694 87.372 70.7558M84.7201 62.8002C85.474 63.3041 86.9856 64.058 88.5028 65.007C89.9177 65.892 91.5316 66.4598 93.0489 67.0281C93.4296 67.2175 93.8046 67.4675 94.1854 67.6588C94.5661 67.8501 94.9412 67.9752 95.7064 68.104M94.5699 59.7695C94.3199 60.5234 93.0621 61.7849 91.6074 63.1734C90.2619 64.4576 89.2737 65.9522 88.0709 67.2781C87.3796 67.8463 86.7431 68.479 86.1767 69.1723C85.8604 69.4905 85.4854 69.7405 84.3413 70.377M86.2355 61.2849C86.2317 61.4099 87.4932 62.4138 88.4422 63.9311C89.3272 65.346 91.1452 67.71 92.7344 69.5511C93.0508 69.8693 93.4258 70.1194 93.744 70.4357C94.0622 70.752 94.3123 71.1271 94.9487 71.5135M80.9616 2.08459C80.9616 1.72667 81.4984 2.07917 82.4014 3.16106C82.7674 3.70607 82.9464 4.24295 83.128 4.78796C83.3097 5.33297 83.4887 5.86985 84.2154 7.5076M80.4193 6.423C80.4193 6.78092 80.7772 6.42842 81.5879 5.43601C82.0407 4.98048 82.5776 4.62256 83.1226 4.25922C83.6676 3.89588 84.2045 3.53796 85.3 2.62689M83.6731 1.54231C83.4941 1.53688 82.7728 3.70067 82.499 5.87258C82.4095 6.41759 82.2305 6.95447 82.0489 7.49948C81.8672 8.04449 81.6882 8.58138 81.5039 8.59222M79.877 4.79611H81.1324C81.8564 4.79611 82.7511 4.79611 83.4805 4.88559C84.2099 4.97507 84.7468 5.15403 86.3846 5.33841M85.3 1.54229C85.3 1.18437 84.942 1.53687 84.2208 2.61876C83.4995 3.70065 82.9518 4.79068 82.5912 5.87257C82.4095 6.41758 82.2305 6.95446 81.5039 8.04991M33.7813 96.9873C33.7813 96.8084 33.7813 96.6294 33.6919 96.8056C33.6024 96.9819 33.4234 97.5188 33.5997 97.8848C33.7759 98.2509 34.3128 98.4298 34.8578 98.4325C35.4028 98.4353 35.9397 98.2563 36.2163 97.8062C36.4929 97.3561 36.4929 96.6402 36.2244 96.182C35.956 95.7238 35.4191 95.5448 34.3236 95.9027M97.2306 44.9264C97.2306 44.7474 97.2306 44.5685 96.9622 44.6552C96.6937 44.742 96.1568 45.0999 95.8803 45.5527C95.6037 46.0056 95.6037 46.5424 95.8721 46.9085C96.1406 47.2746 96.6774 47.4535 97.2225 47.3667C97.7675 47.28 98.3044 46.9221 98.4914 46.4692C98.6785 46.0164 98.4996 45.4795 98.1389 45.203C97.7783 44.9264 97.2414 44.9264 96.6883 44.9264M114.042 23.2343C114.042 23.0554 114.042 22.8764 113.773 22.8737C113.505 22.871 112.968 23.05 112.602 23.4106C112.236 23.7712 112.057 24.3081 112.144 24.8531C112.231 25.3981 112.589 25.935 113.131 26.2116C113.673 26.4882 114.389 26.4882 114.937 26.2197C115.484 25.9513 115.842 25.4144 115.848 24.8694C115.853 24.3244 115.495 23.7875 115.042 23.5109C114.59 23.2343 114.053 23.2343 113.5 23.2343M113.5 39.5034C113.142 39.1455 112.957 38.4242 112.957 37.8792C112.957 39.6769 113.136 41.6672 113.407 42.749C113.5 43.2941 113.5 43.8309 113.5 44.9264M109.704 41.6726C110.061 41.6726 110.783 41.6726 111.865 41.5831C112.41 41.4936 112.946 41.3147 113.581 41.2225C114.215 41.1303 114.931 41.1303 115.669 40.588M111.873 41.1303C111.873 40.9513 111.873 40.7724 112.141 40.8591C112.41 40.9459 112.946 41.3038 113.223 41.2198C113.5 41.1357 113.5 40.5988 112.415 40.588M22.393 24.8613C22.2141 24.6823 22.0351 24.5033 22.0324 24.6796C22.2086 25.3927 22.572 26.4827 22.9326 27.5646L23.4776 29.1997M20.7661 27.0304C20.4082 27.0304 20.7607 26.8515 21.8426 26.4909L23.4695 25.9486C24.0145 25.7669 24.5514 25.5879 25.6468 24.8612M4.49708 49.8071C3.78124 50.3494 1.791 50.7073 1.15651 51.5181C0.525801 52.324 1.96453 53.5978 2.50412 54.2323C3.40163 53.972 4.49166 53.2453 5.21563 52.4345C5.40272 51.9817 5.22377 51.4448 4.49708 50.3494M105.907 1.5423V1M82.0462 79.6337V80.7183M69.5732 93.7335V93.1912M43.6011 55.2767C43.2711 53.2867 42.6011 46.9867 43.0961 40.1567C43.2832 37.5757 44.5811 36.9567 45.5861 36.7817C46.5911 36.6067 47.5811 36.9367 48.2561 37.6017C51.1267 40.4297 50.6011 47.8967 51.4311 51.9417C52.3816 56.5736 54.9211 43.2967 58.5861 39.6217C59.441 38.7645 60.5811 38.6167 61.5861 38.7767C62.5911 38.9367 63.5811 39.5967 64.0911 40.4317C64.6011 41.2667 64.6011 42.2567 64.2711 43.2617C62.8256 47.6639 59.9411 51.2567 57.6111 55.2617C57.0038 56.3057 56.2811 57.2567 56.4361 57.4367C58.7527 60.1268 62.5811 51.9567 66.5861 50.2817C68.5262 49.4703 70.5911 49.2767 72.4211 49.7717C73.3623 50.0262 73.9211 51.2567 74.2611 52.2617C74.6011 53.2667 74.6011 54.2567 74.1061 55.0967C71.8198 58.9765 66.6211 59.9367 62.6161 61.4367C61.5649 61.8304 60.6211 62.5967 60.6061 62.9367C60.4746 65.9188 66.5911 62.2767 68.4211 62.7717C72.7683 63.9475 73.2611 70.2567 73.9361 73.9317C74.2351 75.5595 70.2811 75.2767 67.7861 74.9467C63.0463 74.3198 60.6111 70.9467 59.4411 70.9417C55.7976 70.9261 62.2611 78.2567 62.1061 83.7567C62.0701 85.0358 60.6211 85.5967 59.6161 85.9367C58.6111 86.2767 57.6211 86.2767 56.7811 85.7817C52.9013 83.4953 51.9411 78.2967 50.7711 74.2917C50.4853 73.3133 50.6011 72.2967 50.1061 72.1167C49.6111 71.9367 48.6211 72.5967 48.1111 73.5967C45.9554 77.8236 45.2811 82.2567 42.4461 85.7667C41.8314 86.5278 40.6211 86.2767 39.6161 85.7817C38.6111 85.2867 37.6211 84.2967 37.1111 83.1267C35.1762 78.6877 39.2611 74.2967 39.9361 70.9517C40.6065 67.6297 32.9511 72.2767 29.7911 71.6167C28.178 71.2798 26.9611 69.6367 26.2811 68.4617C25.6011 67.2867 25.6011 66.2967 26.4261 65.7867C30.8772 63.0351 35.5811 64.2767 37.9211 64.2767C38.8811 64.2767 34.6111 63.6167 32.7811 62.1217C29.0855 59.1025 27.9411 54.2967 26.7711 50.2917C26.4853 49.3133 26.6011 48.2967 27.2611 47.7867C27.9211 47.2767 29.2411 47.2767 30.5811 47.9367C35.5911 51.9367 38.9211 55.2567 42.2561 57.4417C42.9311 57.2867 43.2611 56.2967 43.6011 55.2767Z" stroke="white" stroke-width="2" stroke-linecap="round"/>
</svg>
